<?xml version="1.0" encoding="UTF-8"?>
<svg width="150px" height="40px" viewBox="0 0 150 40" version="1.1" xmlns="http://www.w3.org/2000/svg">
    <title>Bcom HR Logo</title>
    <g stroke="none" stroke-width="1" fill="none" fill-rule="evenodd">
        <g fill-rule="nonzero">
            <path d="M25.5,0 C32.4,0 38,5.6 38,12.5 C38,19.4 32.4,25 25.5,25 C18.6,25 13,19.4 13,12.5 C13,5.6 18.6,0 25.5,0 Z" fill="#7C3AED"/>
            <path d="M13,32 C13,27.6 16.6,24 21,24 L30,24 C34.4,24 38,27.6 38,32 L38,40 L13,40 L13,32 Z" fill="#5B21B6"/>
            <path d="M0,2 C0,0.9 0.9,0 2,0 L7,0 C10.9,0 14,3.1 14,7 C14,9.4 12.8,11.4 11,12.5 C13.2,13.6 14.8,15.9 14.8,18.8 C14.8,23.7 10.8,27.8 5.8,27.8 L2,27.8 C0.9,27.8 0,26.9 0,25.8 L0,2 Z M6.8,11.4 C8.5,11.4 9.8,9.9 9.8,8 C9.8,6.1 8.5,4.6 6.8,4.6 L4.2,4.6 L4.2,11.4 L6.8,11.4 Z M7.6,23.2 C9.8,23.2 11.5,21.3 11.5,19 C11.5,16.7 9.8,14.8 7.6,14.8 L4.2,14.8 L4.2,23.2 L7.6,23.2 Z" fill="#5B21B6"/>
            <path d="M45,5 C45,3.3 46.3,2 48,2 L60,2 C61.7,2 63,3.3 63,5 C63,6.7 61.7,8 60,8 L51,8 L51,11 L58,11 C59.7,11 61,12.3 61,14 C61,15.7 59.7,17 58,17 L51,17 L51,20 L60,20 C61.7,20 63,21.3 63,23 C63,24.7 61.7,26 60,26 L48,26 C46.3,26 45,24.7 45,23 L45,5 Z" fill="#5B21B6"/>
            <path d="M64,3 C64,2.4 64.4,2 65,2 L73,2 C78.5,2 83,6.5 83,12 C83,17.5 78.5,22 73,22 L67,22 L67,25 C67,25.6 66.6,26 66,26 L65,26 C64.4,26 64,25.6 64,25 L64,3 Z M73,18 C76.3,18 79,15.3 79,12 C79,8.7 76.3,6 73,6 L67,6 L67,18 L73,18 Z" fill="#2D2D2D"/>
            <path d="M88,14 C88,7.4 93.4,2 100,2 C103.2,2 106.1,3.3 108.2,5.4 C108.6,5.8 108.6,6.4 108.2,6.8 L107.4,7.6 C107,8 106.4,8 106,7.6 C104.4,6 102.3,5 100,5 C95,5 91,9 91,14 C91,19 95,23 100,23 C102.3,23 104.4,22 106,20.4 C106.4,20 107,20 107.4,20.4 L108.2,21.2 C108.6,21.6 108.6,22.2 108.2,22.6 C106.1,24.7 103.2,26 100,26 C93.4,26 88,20.6 88,14 Z" fill="#2D2D2D"/>
            <path d="M123,2 C123.6,2 124,2.4 124,3 L124,25 C124,25.6 123.6,26 123,26 L122,26 C121.4,26 121,25.6 121,25 L121,15 L111,15 L111,25 C111,25.6 110.6,26 110,26 L109,26 C108.4,26 108,25.6 108,25 L108,3 C108,2.4 108.4,2 109,2 L110,2 C110.6,2 111,2.4 111,3 L111,12 L121,12 L121,3 C121,2.4 121.4,2 122,2 L123,2 Z" fill="#2D2D2D"/>
            <path d="M147,23.4 L147,25 C147,25.6 146.6,26 146,26 L129,26 C128.4,26 128,25.6 128,25 L128,3 C128,2.4 128.4,2 129,2 L146,2 C146.6,2 147,2.4 147,3 L147,4.6 C147,5.2 146.6,5.6 146,5.6 L131,5.6 L131,12 L141,12 C141.6,12 142,12.4 142,13 L142,14.6 C142,15.2 141.6,15.6 141,15.6 L131,15.6 L131,22.4 L146,22.4 C146.6,22.4 147,22.8 147,23.4 Z" fill="#2D2D2D"/>
            <path d="M134,27 C134,26.4 134.4,26 135,26 L140,26 C140.6,26 141,26.4 141,27 L141,39 C141,39.6 140.6,40 140,40 L135,40 C134.4,40 134,39.6 134,39 L134,27 Z" fill="#5B21B6"/>
            <path d="M144,27 C144,26.4 144.4,26 145,26 L146,26 C146.6,26 147,26.4 147,27 L147,39 C147,39.6 146.6,40 146,40 L145,40 C144.4,40 144,39.6 144,39 L144,27 Z" fill="#5B21B6"/>
        </g>
    </g>
</svg>
